<svg width="100" height="18" viewBox="0 0 100 18" fill="none" xmlns="http://www.w3.org/2000/svg">
<path d="M8.80018 2.758C9.10912 1.85723 10.3831 1.85723 10.692 2.758L11.6473 5.54327C11.7859 5.94741 12.1659 6.21885 12.5932 6.21885H15.5645C16.5463 6.21885 16.9402 7.48594 16.1315 8.04258L13.8223 9.63202C13.4527 9.8864 13.2978 10.3558 13.4434 10.7802L14.3471 13.4151C14.6598 14.327 13.6283 15.1098 12.8342 14.5632L10.3131 12.8279C9.97162 12.5929 9.52057 12.5929 9.17912 12.8279L6.658 14.5632C5.8639 15.1098 4.83236 14.327 5.14511 13.4151L6.04881 10.7802C6.19436 10.3558 6.03945 9.8864 5.66987 9.63202L3.36066 8.04258C2.55195 7.48594 2.94588 6.21885 3.92764 6.21885H6.899C7.32625 6.21885 7.70631 5.94741 7.84491 5.54327L8.80018 2.758Z" fill="#FFB542"/>
<path d="M27.295 2.92705C27.5944 2.00574 28.8978 2.00574 29.1972 2.92705L30.0422 5.52786C30.1761 5.93989 30.56 6.21885 30.9933 6.21885H33.7279C34.6966 6.21885 35.0994 7.45846 34.3157 8.02786L32.1033 9.63525C31.7528 9.8899 31.6062 10.3413 31.74 10.7533L32.5851 13.3541C32.8845 14.2754 31.83 15.0415 31.0463 14.4721L28.8339 12.8647C28.4834 12.6101 28.0088 12.6101 27.6583 12.8647L25.4459 14.4721C24.6622 15.0415 23.6077 14.2754 23.9071 13.3541L24.7521 10.7533C24.886 10.3413 24.7394 9.8899 24.3889 9.63525L22.1765 8.02787C21.3928 7.45846 21.7955 6.21885 22.7643 6.21885H25.4989C25.9322 6.21885 26.3161 5.93989 26.45 5.52786L27.295 2.92705Z" fill="#FFB542"/>
<path d="M47.8002 2.758C48.1091 1.85723 49.3831 1.85723 49.692 2.758L50.6473 5.54327C50.7859 5.94741 51.1659 6.21885 51.5932 6.21885H54.5645C55.5463 6.21885 55.9402 7.48594 55.1315 8.04258L52.8223 9.63202C52.4527 9.8864 52.2978 10.3558 52.4434 10.7802L53.3471 13.4151C53.6598 14.327 52.6283 15.1098 51.8342 14.5632L49.3131 12.8279C48.9716 12.5929 48.5206 12.5929 48.1791 12.8279L45.658 14.5632C44.8639 15.1098 43.8324 14.327 44.1451 13.4151L45.0488 10.7802C45.1944 10.3558 45.0394 9.8864 44.6699 9.63202L42.3607 8.04258C41.5519 7.48594 41.9459 6.21885 42.9276 6.21885H45.899C46.3263 6.21885 46.7063 5.94741 46.8449 5.54327L47.8002 2.758Z" fill="#FFB542"/>
<path d="M68.8002 2.758C69.1091 1.85723 70.3831 1.85723 70.692 2.758L71.6473 5.54327C71.7859 5.94741 72.1659 6.21885 72.5932 6.21885H75.5645C76.5463 6.21885 76.9402 7.48594 76.1315 8.04258L73.8223 9.63202C73.4527 9.8864 73.2978 10.3558 73.4434 10.7802L74.3471 13.4151C74.6598 14.327 73.6283 15.1098 72.8342 14.5632L70.3131 12.8279C69.9716 12.5929 69.5206 12.5929 69.1791 12.8279L66.658 14.5632C65.8639 15.1098 64.8324 14.327 65.1451 13.4151L66.0488 10.7802C66.1944 10.3558 66.0394 9.8864 65.6699 9.63202L63.3607 8.04258C62.5519 7.48594 62.9459 6.21885 63.9276 6.21885H66.899C67.3263 6.21885 67.7063 5.94741 67.8449 5.54327L68.8002 2.758Z" fill="#FFB542"/>
<path d="M88.8002 2.758C89.1091 1.85723 90.3831 1.85723 90.692 2.758L91.6473 5.54327C91.7859 5.94741 92.1659 6.21885 92.5932 6.21885H95.5645C96.5463 6.21885 96.9402 7.48594 96.1315 8.04258L93.8223 9.63202C93.4527 9.8864 93.2978 10.3558 93.4434 10.7802L94.3471 13.4151C94.6598 14.327 93.6283 15.1098 92.8342 14.5632L90.3131 12.8279C89.9716 12.5929 89.5206 12.5929 89.1791 12.8279L86.658 14.5632C85.8639 15.1098 84.8324 14.327 85.1451 13.4151L86.0488 10.7802C86.1944 10.3558 86.0394 9.8864 85.6699 9.63202L83.3607 8.04258C82.5519 7.48594 82.9459 6.21885 83.9276 6.21885H86.899C87.3263 6.21885 87.7063 5.94741 87.8449 5.54327L88.8002 2.758Z" fill="#FFB542"/>
</svg>
