<svg width="48" height="49" viewBox="0 0 48 49" fill="none" xmlns="http://www.w3.org/2000/svg">
<path d="M23.8652 9.13452C10.0787 9.13452 9 10.214 9 23.9998V24.2693C9 38.055 10.0787 39.1345 23.8652 39.1345H24.1348C37.9213 39.1345 39 38.055 39 24.2693V24.1345C39 10.2235 37.911 9.13452 24 9.13452H23.8652ZM32.9956 13.6345C33.8244 13.6323 34.4977 14.3014 34.5 15.1301C34.5023 15.9589 33.8331 16.6323 33.0044 16.6345C32.1756 16.6368 31.5023 15.9677 31.5 15.1389C31.4977 14.3102 32.1669 13.6368 32.9956 13.6345ZM23.9824 16.6345C28.1239 16.6248 31.4902 19.9754 31.5 24.1169C31.5098 28.2584 28.1591 31.6248 24.0176 31.6345C19.8761 31.6443 16.5097 28.2936 16.5 24.1521C16.4903 20.0106 19.8409 16.6443 23.9824 16.6345ZM23.9897 19.6345C21.5042 19.6405 19.494 21.6607 19.5 24.1462C19.506 26.631 21.5255 28.6405 24.0103 28.6345C26.4958 28.6285 28.506 26.609 28.5 24.1243C28.494 21.6388 26.4745 19.6285 23.9897 19.6345Z" fill="white"/>
</svg>
