<svg width="48" height="49" viewBox="0 0 48 49" fill="none" xmlns="http://www.w3.org/2000/svg">
<path d="M30.1702 9.13452C38.3595 9.13452 39 9.77502 39 17.9643V30.304C39 38.4933 38.3595 39.1345 30.1702 39.1345H28.6035V28.213H32.454L33.0592 23.8855H28.6035C28.6035 23.8855 28.5968 21.352 28.6035 20.7198C28.6163 19.483 29.649 18.8575 30.5363 18.8665C31.4235 18.8755 33.2617 18.8695 33.2617 18.8695V14.8818C33.2617 14.8818 31.6695 14.6755 30 14.6583C28.5968 14.644 27.0473 15.0235 25.797 16.2835C24.525 17.5653 24.3248 19.474 24.3 21.8065C24.2933 22.4815 24.3 23.8855 24.3 23.8855H20.532V28.213H24.3V39.1345H17.8305C9.6405 39.1345 9 38.4933 9 30.3048V17.9643C9 9.77502 9.6405 9.13452 17.8298 9.13452H30.1702Z" fill="white"/>
</svg>
