<svg width="48" height="49" viewBox="0 0 48 49" fill="none" xmlns="http://www.w3.org/2000/svg">
<path d="M30.1702 9.13452C38.3588 9.13452 39 9.77502 39 17.9643V30.304C39 38.4933 38.3588 39.1345 30.1702 39.1345H17.8298C9.64125 39.1345 9 38.4933 9 30.3048V17.9643C9 9.77502 9.64125 9.13452 17.8298 9.13452H30.1702ZM18.7717 32.3845V20.1805H14.979V32.3845H18.7717ZM16.8757 18.4353C18.0945 18.4353 19.086 17.4438 19.086 16.2235C19.086 15.0048 18.0945 14.0133 16.8757 14.0133C15.654 14.0133 14.664 15.0033 14.664 16.2235C14.664 17.4438 15.6525 18.4353 16.8757 18.4353ZM33 32.3845V25.6908C33 22.4043 32.2905 19.8768 28.4497 19.8768C26.6047 19.8768 25.368 20.8885 24.861 21.8478H24.81V20.1805H21.1718V32.3845H24.9623V26.347C24.9623 24.7555 25.266 23.2135 27.2393 23.2135C29.1847 23.2135 29.2102 25.0338 29.2102 26.4498V32.3845H33Z" fill="white"/>
</svg>
