<svg width="40" height="40" viewBox="0 0 40 40" fill="none" xmlns="http://www.w3.org/2000/svg">
  <path d="M19.9996 0C8.9713 0 0 8.972 0 20C0 31.028 8.9713 40 19.9996 40C31.0279 40 40 31.028 40 20C40 8.972 31.0279 0 19.9996 0ZM19.9996 37.377C10.418 37.377 2.623 29.5816 2.623 20C2.623 10.4183 10.4179 2.6231 19.9996 2.6231C29.5813 2.6231 37.3767 10.4184 37.3767 20C37.3768 29.5816 29.5812 37.377 19.9996 37.377Z" fill="#29833D" />
  <path d="M27.2404 13.4527L16.9273 23.7653L12.7584 19.5973C12.2461 19.0856 11.4162 19.0853 10.9039 19.5976C10.3914 20.1101 10.3914 20.9401 10.9039 21.4524L16.0002 26.5479C16.2563 26.8037 16.5918 26.9317 16.9273 26.9317C17.2628 26.9317 17.5992 26.8037 17.8552 26.5475C17.856 26.5464 17.8566 26.5453 17.8579 26.544L29.0948 15.3072C29.6073 14.7952 29.6073 13.9646 29.0948 13.4526C28.5826 12.9403 27.7521 12.9403 27.2404 13.4527Z" fill="#29833D" />
</svg>