<svg width="282" height="50" viewBox="0 0 282 50" fill="none" xmlns="http://www.w3.org/2000/svg">
<g clip-path="url(#clip0_5002_1903)">
<path d="M106.953 25.1312C105.916 27.0803 104.257 28.6148 102.059 29.8174C99.8197 31.0201 97.0412 31.6006 93.6406 31.6006H86.715V47.4424H78.4209V6.1377H93.6406C96.8338 6.1377 99.5709 6.67681 101.81 7.79652C104.05 8.91622 105.75 10.4092 106.87 12.3583C107.989 14.3074 108.57 16.4639 108.57 18.9106C108.57 21.3574 108.031 23.1821 106.994 25.1312H106.953ZM98.3268 23.3065C99.4465 22.2698 99.9856 20.7768 99.9856 18.9106C99.9856 14.888 97.7462 12.8974 93.2259 12.8974H86.6735V24.9239H93.2259C95.5068 24.9239 97.2071 24.3848 98.3268 23.348V23.3065Z" fill="white"/>
<path d="M134.448 39.563H117.984L115.247 47.4424H106.538L121.385 6.09619H131.006L145.852 47.4424H137.102L134.365 39.563H134.448ZM132.167 32.9277L126.195 15.6759L120.223 32.9277H132.167Z" fill="white"/>
<path d="M158.832 23.9283C160.118 23.1818 161.569 22.8086 163.228 22.8086V29.278H161.611C159.662 29.278 158.21 29.7342 157.215 30.6465C156.22 31.5589 155.722 33.1348 155.722 35.4157V47.5665H149.584V23.2233H155.722V26.9971C156.51 25.7115 157.547 24.7162 158.832 23.9698V23.9283Z" fill="white"/>
<path d="M166.173 28.7389C167.168 26.8312 168.495 25.3798 170.154 24.343C171.854 23.3062 173.72 22.8086 175.794 22.8086C177.867 22.8086 179.194 23.1818 180.563 23.9283C181.931 24.6748 183.01 25.5871 183.839 26.7068V23.2233H190.06V47.5665H183.839V44.0001C183.051 45.1612 181.973 46.0736 180.563 46.8201C179.153 47.5665 177.577 47.9398 175.752 47.9398C173.928 47.9398 171.813 47.4007 170.154 46.3639C168.454 45.3271 167.126 43.8342 166.173 41.8851C165.177 39.9774 164.68 37.738 164.68 35.2498C164.68 32.7615 165.177 30.6051 166.173 28.6974V28.7389ZM182.968 31.5174C182.388 30.4392 181.6 29.6098 180.604 29.0707C179.609 28.4901 178.531 28.1998 177.411 28.1998C176.291 28.1998 175.213 28.4901 174.259 29.0292C173.306 29.5683 172.518 30.3977 171.896 31.4759C171.274 32.5542 170.983 33.7983 170.983 35.2912C170.983 36.7842 171.274 38.0283 171.896 39.148C172.476 40.2677 173.306 41.0971 174.259 41.6777C175.255 42.2583 176.291 42.5486 177.411 42.5486C178.531 42.5486 179.609 42.2583 180.604 41.6777C181.6 41.0971 182.388 40.2677 182.968 39.231C183.549 38.1527 183.839 36.8671 183.839 35.3742C183.839 33.8812 183.549 32.5957 182.968 31.5174Z" fill="white"/>
<path d="M202.376 28.2416V40.0192C202.376 40.8487 202.584 41.4292 202.957 41.8025C203.372 42.1757 204.035 42.3416 204.948 42.3416H207.809V47.5254H203.952C198.769 47.5254 196.156 44.9957 196.156 39.9778V28.2416H193.253V23.1822H196.156V17.1689H202.376V23.1822H207.809V28.2416H202.376Z" fill="white"/>
<path d="M233.562 37.2404H215.771C215.937 38.9821 216.518 40.3921 217.638 41.3874C218.716 42.3827 220.043 42.8804 221.619 42.8804C223.9 42.8804 225.517 41.8851 226.512 39.9359H233.148C232.443 42.2998 231.115 44.2074 229.083 45.7004C227.093 47.1933 224.646 47.9812 221.743 47.9812C218.84 47.9812 217.306 47.4421 215.44 46.4054C213.573 45.3686 212.122 43.8757 211.085 41.968C210.048 40.0604 209.509 37.8624 209.509 35.3742C209.509 32.8859 210.007 30.6465 211.044 28.7389C212.08 26.8312 213.49 25.3798 215.357 24.343C217.223 23.3062 219.338 22.8086 221.743 22.8086C224.148 22.8086 226.139 23.3062 227.964 24.3015C229.788 25.2968 231.198 26.7068 232.235 28.5315C233.23 30.3562 233.77 32.4712 233.77 34.8351C233.77 37.1989 233.728 36.4939 233.604 37.1989L233.562 37.2404ZM227.383 33.0933C227.383 31.5174 226.761 30.2318 225.683 29.278C224.563 28.3242 223.195 27.868 221.577 27.868C219.96 27.868 218.757 28.3242 217.72 29.2365C216.684 30.1489 216.062 31.4345 215.813 33.0933H227.383Z" fill="white"/>
<path d="M241.151 46.862C239.576 46.157 238.332 45.1617 237.378 43.9176C236.465 42.6735 235.968 41.3049 235.843 39.812H242.064C242.188 40.7658 242.644 41.5123 243.432 42.1343C244.22 42.7564 245.257 43.0467 246.46 43.0467C247.662 43.0467 248.533 42.7979 249.197 42.3417C249.86 41.8855 250.192 41.2635 250.192 40.5585C250.192 39.8535 249.777 39.1899 248.989 38.7752C248.202 38.3605 246.916 37.9458 245.133 37.4896C243.308 37.0335 241.815 36.5773 240.654 36.1211C239.493 35.6649 238.497 34.9185 237.668 33.9646C236.839 33.0108 236.424 31.6838 236.424 30.0664C236.424 28.449 236.797 27.4952 237.585 26.3755C238.373 25.2558 239.493 24.3849 240.944 23.7214C242.396 23.0579 244.096 22.7676 246.087 22.7676C248.989 22.7676 251.312 23.4726 253.054 24.924C254.795 26.3755 255.749 28.3246 255.915 30.8129H250.026C249.943 29.859 249.529 29.0711 248.824 28.4905C248.119 27.9099 247.165 27.6196 245.962 27.6196C244.759 27.6196 243.972 27.827 243.391 28.2417C242.81 28.6564 242.479 29.237 242.479 29.942C242.479 30.647 242.893 31.3935 243.723 31.8082C244.552 32.2229 245.838 32.679 247.538 33.0938C249.28 33.5499 250.731 34.0061 251.892 34.4623C253.054 34.9185 254.007 35.6649 254.878 36.6188C255.708 37.614 256.164 38.8996 256.164 40.517C256.164 41.927 255.791 43.1711 255.003 44.2908C254.215 45.4105 253.095 46.2814 251.644 46.9035C250.192 47.5255 248.492 47.8573 246.584 47.8573C244.676 47.8573 242.81 47.484 241.234 46.779L241.151 46.862Z" fill="white"/>
<path d="M237.046 18.6619C236.673 18.2887 236.465 17.8325 236.465 17.2934C236.465 16.7543 236.673 16.2981 237.046 15.9249C237.419 15.5516 237.917 15.3857 238.497 15.3857C239.078 15.3857 239.534 15.5516 239.907 15.9249C240.281 16.2981 240.446 16.7543 240.446 17.2934C240.446 17.8325 240.281 18.2887 239.907 18.6619C239.534 19.0352 239.078 19.201 238.497 19.201C237.917 19.201 237.419 19.0352 237.046 18.6619Z" fill="white"/>
<path d="M244.759 18.4544C243.764 17.9153 243.017 17.1274 242.437 16.1321C241.856 15.1368 241.607 13.9756 241.607 12.69C241.607 11.4044 241.898 10.2432 242.478 9.24796C243.059 8.25266 243.847 7.46472 244.842 6.9256C245.837 6.38649 246.957 6.09619 248.201 6.09619C249.445 6.09619 250.565 6.38649 251.56 6.9256C252.556 7.46472 253.344 8.25266 253.924 9.24796C254.505 10.2432 254.795 11.4044 254.795 12.69C254.795 13.9756 254.505 15.1368 253.924 16.1321C253.344 17.1274 252.514 17.9153 251.519 18.4544C250.524 18.9935 249.404 19.2838 248.118 19.2838C246.833 19.2838 245.796 18.9935 244.801 18.4544H244.759ZM249.736 16.0077C250.233 15.7174 250.648 15.3027 250.98 14.7221C251.27 14.1415 251.436 13.478 251.436 12.6485C251.436 11.4459 251.104 10.4921 250.482 9.82854C249.86 9.16501 249.072 8.83325 248.16 8.83325C247.247 8.83325 246.459 9.16501 245.837 9.82854C245.215 10.4921 244.884 11.4044 244.884 12.6485C244.884 13.8927 245.174 14.805 245.796 15.4685C246.418 16.1321 247.164 16.4638 248.077 16.4638C248.989 16.4638 249.197 16.3394 249.736 16.0491V16.0077Z" fill="white"/>
<path d="M261.597 6.67678C262.26 6.30354 263.048 6.09619 263.878 6.09619V9.49678H263.007C262.011 9.49678 261.223 9.7456 260.726 10.2018C260.228 10.658 259.938 11.5288 259.938 12.69V19.0765H256.703V6.30354H259.938V8.29413C260.353 7.6306 260.892 7.09149 261.555 6.71825L261.597 6.67678Z" fill="white"/>
<path d="M273.125 6.63528C273.83 7.00851 274.411 7.50616 274.825 8.08675V6.26204H278.06V19.1179C278.06 20.3206 277.811 21.3573 277.355 22.2697C276.857 23.182 276.152 23.9285 275.199 24.4676C274.245 25.0067 273.084 25.297 271.757 25.297C270.429 25.297 268.439 24.8823 267.278 24.0115C266.117 23.182 265.453 22.0209 265.287 20.5694H268.48C268.646 21.15 269.019 21.6062 269.559 21.9794C270.139 22.3112 270.803 22.5185 271.591 22.5185C272.379 22.5185 273.291 22.2282 273.872 21.6891C274.452 21.1085 274.742 20.2791 274.742 19.1594V17.1688C274.328 17.7494 273.747 18.2885 273.042 18.6617C272.296 19.0765 271.466 19.2423 270.554 19.2423C269.642 19.2423 268.48 18.952 267.609 18.4129C266.697 17.8738 266.034 17.0859 265.494 16.0906C264.997 15.0953 264.707 13.9341 264.707 12.607C264.707 11.28 264.955 10.1603 265.494 9.16498C265.992 8.16969 266.697 7.38175 267.609 6.84263C268.48 6.30351 269.476 6.05469 270.554 6.05469C271.632 6.05469 272.337 6.26204 273.084 6.63528H273.125ZM274.369 10.6579C274.079 10.0773 273.664 9.66263 273.125 9.37233C272.586 9.08204 272.047 8.91616 271.425 8.91616C270.803 8.91616 270.264 9.08204 269.766 9.37233C269.268 9.66263 268.854 10.0773 268.522 10.6579C268.19 11.2385 268.066 11.902 268.066 12.6485C268.066 13.395 268.232 14.1 268.522 14.6806C268.854 15.2612 269.268 15.7173 269.766 16.0076C270.264 16.2979 270.844 16.4638 271.425 16.4638C272.005 16.4638 272.586 16.2979 273.125 16.0076C273.664 15.7173 274.079 15.2612 274.369 14.722C274.659 14.1415 274.825 13.4779 274.825 12.69C274.825 11.902 274.659 11.2385 274.369 10.6579Z" fill="white"/>
<path d="M32.2527 28.726H19.8116L30.7648 8.80355L35.642 -0.0830078H13.8183L17.1663 10.4569H3.89844L16.5049 49.6817H25.5568L32.2527 28.726Z" fill="white"/>
<path d="M45.8513 10.4569L49.2405 -0.0830078H37.502L30.8061 20.8727H43.2473L32.2941 40.7951L27.3755 49.6817H46.5539L59.1191 10.4569H45.8513Z" fill="white"/>
</g>
<defs>
<clipPath id="clip0_5002_1903">
<rect width="282" height="49.7647" fill="white"/>
</clipPath>
</defs>
</svg>
