<svg width="234" height="289" viewBox="0 0 234 289" fill="none" xmlns="http://www.w3.org/2000/svg">
<rect x="0.165192" y="-0.00488281" width="233.777" height="288.522" rx="44.388" fill="white"/>
<path d="M77.1058 -0.00512695H157.004V22.1889C157.004 35.2635 146.405 45.8625 133.331 45.8625H100.779C87.7048 45.8625 77.1058 35.2635 77.1058 22.1889V-0.00512695Z" fill="#FFDB44"/>
<circle cx="57.1305" cy="117.624" r="9.61741" fill="#FFDB44"/>
<rect x="78.5847" y="108.006" width="105.052" height="19.2348" rx="9.61741" fill="#FFDB44"/>
<circle cx="57.1319" cy="154.613" r="9.61741" fill="#FFDB44"/>
<rect x="78.5862" y="144.996" width="105.052" height="19.2348" rx="9.61741" fill="#FFDB44"/>
<path d="M64.6644 179.253C66.0565 177.534 68.579 177.268 70.2984 178.661L73.4118 181.181C75.1313 182.573 75.3967 185.096 74.0046 186.815L58.1076 206.451C56.7155 208.17 54.1931 208.435 52.4736 207.043L46.2468 202.002L64.6644 179.253Z" fill="#FFDB44"/>
<path d="M38.8606 196.411C37.103 195.068 36.7674 192.553 38.111 190.796L39.4416 189.055C40.7852 187.298 43.2993 186.962 45.0569 188.306L61.5316 200.9L57.7682 205.823C56.4245 207.581 53.9105 207.916 52.1528 206.573L38.8606 196.411Z" fill="#FFDB44"/>
<rect x="78.0049" y="183.234" width="105.052" height="19.2348" rx="9.61741" fill="#FFDB44"/>
</svg>
