<svg width="994" height="3" viewBox="0 0 994 3" fill="none" xmlns="http://www.w3.org/2000/svg">
  <path d="M245.5 1L245.498 0.499988L245.502 0.500004L245.5 1ZM496.5 2L496.502 2.50001L496.498 2.5L496.5 2ZM747.5 1L747.498 0.499988L747.502 0.500004L747.5 1ZM993.002 1.47809C993.278 1.47919 993.501 1.70394 993.5 1.98008C993.499 2.25622 993.274 2.47918 992.998 2.47808L993 1.97809L993.002 1.47809ZM0 1.97809L-0.00199202 1.47809L1.00416 1.47408L1.00615 1.97408L1.00814 2.47408L0.00199202 2.47808L0 1.97809ZM3.01844 1.96606L3.01645 1.46607L5.02875 1.45805L5.03074 1.95804L5.03273 2.45804L3.02043 2.46606L3.01844 1.96606ZM7.04303 1.95003L7.04104 1.45003L9.05334 1.44201L9.05533 1.94201L9.05732 2.44201L7.04502 2.45002L7.04303 1.95003ZM11.0676 1.93399L11.0656 1.434L13.0779 1.42598L13.0799 1.92598L13.0819 2.42597L11.0696 2.43399L11.0676 1.93399ZM15.0922 1.91796L15.0902 1.41796L17.1025 1.40995L17.1045 1.90994L17.1065 2.40994L15.0942 2.41796L15.0922 1.91796ZM19.1168 1.90193L19.1148 1.40193L21.1271 1.39391L21.1291 1.89391L21.1311 2.3939L19.1188 2.40192L19.1168 1.90193ZM23.1414 1.88589L23.1394 1.38589L25.1517 1.37788L25.1537 1.87787L25.1557 2.37787L23.1434 2.38589L23.1414 1.88589ZM27.166 1.86986L27.164 1.36986L29.1763 1.36184L29.1783 1.86184L29.1803 2.36184L27.168 2.36985L27.166 1.86986ZM31.1906 1.85382L31.1886 1.35383L33.2009 1.34581L33.2029 1.84581L33.2049 2.3458L31.1926 2.35382L31.1906 1.85382ZM35.2152 1.83779L35.2132 1.33779L37.2255 1.32978L37.2274 1.82977L37.2294 2.32977L35.2171 2.33778L35.2152 1.83779ZM39.2397 1.82175L39.2378 1.32176L41.25 1.31374L41.252 1.81374L41.254 2.31373L39.2417 2.32175L39.2397 1.82175ZM43.2643 1.80572L43.2623 1.30572L45.2746 1.29771L45.2766 1.7977L45.2786 2.2977L43.2663 2.30572L43.2643 1.80572ZM47.2889 1.78969L47.2869 1.28969L49.2992 1.28167L49.3012 1.78167L49.3032 2.28166L47.2909 2.28968L47.2889 1.78969ZM51.3135 1.77365L51.3115 1.27366L53.3238 1.26564L53.3258 1.76563L53.3278 2.26563L51.3155 2.27365L51.3135 1.77365ZM55.3381 1.75762L55.3361 1.25762L57.3484 1.2496L57.3504 1.7496L57.3524 2.2496L55.3401 2.25761L55.3381 1.75762ZM59.3627 1.74158L59.3607 1.24159L61.373 1.23357L61.375 1.73357L61.377 2.23356L59.3647 2.24158L59.3627 1.74158ZM63.3873 1.72555L63.3853 1.22555L65.3976 1.21754L65.3996 1.71753L65.4016 2.21753L63.3893 2.22554L63.3873 1.72555ZM67.4119 1.70951L67.4099 1.20952L69.4222 1.2015L69.4242 1.7015L69.4262 2.20149L67.4139 2.20951L67.4119 1.70951ZM71.4365 1.69348L71.4345 1.19348L73.4468 1.18547L73.4488 1.68546L73.4507 2.18546L71.4384 2.19348L71.4365 1.69348ZM75.4611 1.67745L75.4591 1.17745L77.4714 1.16943L77.4734 1.66943L77.4753 2.16942L75.4631 2.17744L75.4611 1.67745ZM79.4856 1.66141L79.4837 1.16142L81.496 1.1534L81.4979 1.65339L81.4999 2.15339L79.4876 2.16141L79.4856 1.66141ZM83.5102 1.64538L83.5083 1.14538L85.5205 1.13736L85.5225 1.63736L85.5245 2.13736L83.5122 2.14537L83.5102 1.64538ZM87.5348 1.62934L87.5329 1.12935L89.5452 1.12133L89.5471 1.62133L89.5491 2.12132L87.5368 2.12934L87.5348 1.62934ZM91.5594 1.61331L91.5574 1.11331L93.5697 1.1053L93.5717 1.60529L93.5737 2.10529L91.5614 2.11331L91.5594 1.61331ZM95.584 1.59727L95.582 1.09728L97.5943 1.08926L97.5963 1.58926L97.5983 2.08925L95.586 2.09727L95.584 1.59727ZM99.6086 1.58124L99.6066 1.08124L101.619 1.07323L101.621 1.57322L101.623 2.07322L99.6106 2.08124L99.6086 1.58124ZM103.633 1.56521L103.631 1.06521L105.644 1.05719L105.646 1.55719L105.648 2.05719L103.635 2.0652L103.633 1.56521ZM107.658 1.54917L107.656 1.04918L109.668 1.04116L109.67 1.54115L109.672 2.04115L107.66 2.04917L107.658 1.54917ZM111.682 1.53314L111.68 1.03314L113.693 1.02512L113.695 1.52512L113.697 2.02512L111.684 2.03313L111.682 1.53314ZM115.707 1.5171L115.705 1.01711L117.717 1.00909L117.719 1.50909L117.721 2.00908L115.709 2.0171L115.707 1.5171ZM119.732 1.50107L119.73 1.00107L121.742 0.993056L121.744 1.49305L121.746 1.99305L119.734 2.00107L119.732 1.50107ZM123.756 1.48504L123.754 0.985039L125.767 0.977022L125.769 1.47702L125.77 1.97701L123.758 1.98503L123.756 1.48504ZM127.781 1.469L127.779 0.969005L129.791 0.960988L129.793 1.46098L129.795 1.96098L127.783 1.969L127.781 1.469ZM131.805 1.45297L131.803 0.952971L133.816 0.944953L133.818 1.44495L133.82 1.94495L131.807 1.95296L131.805 1.45297ZM135.83 1.43693L135.828 0.936936L137.84 0.928919L137.842 1.42892L137.844 1.92891L135.832 1.93693L135.83 1.43693ZM139.855 1.4209L139.853 0.920902L141.865 0.912885L141.867 1.41288L141.869 1.91288L139.857 1.92089L139.855 1.4209ZM143.879 1.40486L143.877 0.904868L145.889 0.896851L145.891 1.39685L145.893 1.89684L143.881 1.90486L143.879 1.40486ZM147.904 1.38883L147.902 0.888834L149.914 0.880816L149.916 1.38081L149.918 1.88081L147.906 1.88883L147.904 1.38883ZM151.928 1.3728L151.926 0.872799L153.939 0.864782L153.941 1.36478L153.943 1.86477L151.93 1.87279L151.928 1.3728ZM155.953 1.35676L155.951 0.856765L157.963 0.848748L157.965 1.34874L157.967 1.84874L155.955 1.85676L155.953 1.35676ZM159.978 1.34073L159.976 0.840731L161.988 0.832714L161.99 1.33271L161.992 1.83271L159.98 1.84072L159.978 1.34073ZM164.002 1.32469L164 0.824697L166.012 0.816679L166.014 1.31668L166.016 1.81667L164.004 1.82469L164.002 1.32469ZM168.027 1.30866L168.025 0.808662L170.037 0.800645L170.039 1.30064L170.041 1.80064L168.029 1.80865L168.027 1.30866ZM172.051 1.29262L172.049 0.792628L174.062 0.784611L174.064 1.28461L174.066 1.7846L172.053 1.79262L172.051 1.29262ZM176.076 1.27659L176.074 0.776594L178.086 0.768577L178.088 1.26857L178.09 1.76857L176.078 1.77659L176.076 1.27659ZM180.101 1.26056L180.099 0.76056L182.111 0.752542L182.113 1.25254L182.115 1.75253L180.103 1.76055L180.101 1.26056ZM184.125 1.24452L184.123 0.744525L186.135 0.736508L186.137 1.2365L186.139 1.7365L184.127 1.74452L184.125 1.24452ZM188.15 1.22849L188.148 0.728491L190.16 0.720474L190.162 1.22047L190.164 1.72047L188.152 1.72848L188.15 1.22849ZM192.174 1.21245L192.172 0.712457L194.185 0.70444L194.187 1.20444L194.189 1.70443L192.176 1.71245L192.174 1.21245ZM196.199 1.19642L196.197 0.696423L198.209 0.688405L198.211 1.1884L198.213 1.6884L196.201 1.69641L196.199 1.19642ZM200.224 1.18038L200.222 0.680388L202.234 0.672371L202.236 1.17237L202.238 1.67236L200.226 1.68038L200.224 1.18038ZM204.248 1.16435L204.246 0.664354L206.258 0.656337L206.26 1.15633L206.262 1.65633L204.25 1.66435L204.248 1.16435ZM208.273 1.14832L208.271 0.64832L210.283 0.640303L210.285 1.1403L210.287 1.64029L208.275 1.64831L208.273 1.14832ZM212.297 1.13228L212.295 0.632286L214.308 0.624268L214.31 1.12426L214.312 1.62426L212.299 1.63228L212.297 1.13228ZM216.322 1.11625L216.32 0.616251L218.332 0.608234L218.334 1.10823L218.336 1.60823L216.324 1.61624L216.322 1.11625ZM220.346 1.10021L220.345 0.600217L222.357 0.5922L222.359 1.0922L222.361 1.59219L220.348 1.60021L220.346 1.10021ZM224.371 1.08418L224.369 0.584183L226.381 0.576166L226.383 1.07616L226.385 1.57616L224.373 1.58417L224.371 1.08418ZM228.396 1.06814L228.394 0.568149L230.406 0.560132L230.408 1.06013L230.41 1.56012L228.398 1.56814L228.396 1.06814ZM232.42 1.05211L232.418 0.552114L234.431 0.544097L234.433 1.04409L234.435 1.54409L232.422 1.55211L232.42 1.05211ZM236.445 1.03608L236.443 0.53608L238.455 0.528063L238.457 1.02806L238.459 1.52806L236.447 1.53607L236.445 1.03608ZM240.469 1.02004L240.467 0.520046L242.48 0.512029L242.482 1.01202L242.484 1.51202L240.471 1.52004L240.469 1.02004ZM244.494 1.00401L244.492 0.504012L245.498 0.500004L245.5 1L245.502 1.5L244.496 1.504L244.494 1.00401ZM245.5 1L245.502 0.500004L246.498 0.503972L246.496 1.00397L246.494 1.50396L245.498 1.5L245.5 1ZM248.488 1.0119L248.49 0.511909L250.482 0.519845L250.48 1.01984L250.478 1.51984L248.486 1.5119L248.488 1.0119ZM252.472 1.02778L252.474 0.527782L254.466 0.535718L254.464 1.03571L254.462 1.53571L252.47 1.52777L252.472 1.02778ZM256.456 1.04365L256.458 0.543655L258.45 0.551591L258.448 1.05159L258.446 1.55158L256.454 1.54365L256.456 1.04365ZM260.44 1.05952L260.442 0.559528L262.435 0.567464L262.433 1.06746L262.431 1.56746L260.438 1.55952L260.44 1.05952ZM264.425 1.0754L264.427 0.575401L266.419 0.583337L266.417 1.08333L266.415 1.58333L264.423 1.57539L264.425 1.0754ZM268.409 1.09127L268.411 0.591274L270.403 0.59921L270.401 1.09921L270.399 1.5992L268.407 1.59127L268.409 1.09127ZM272.393 1.10714L272.395 0.607147L274.387 0.615083L274.385 1.11508L274.383 1.61508L272.391 1.60714L272.393 1.10714ZM276.377 1.12302L276.379 0.62302L278.371 0.630956L278.369 1.13095L278.367 1.63095L276.375 1.62301L276.377 1.12302ZM280.361 1.13889L280.363 0.638893L282.355 0.646829L282.353 1.14683L282.351 1.64682L280.359 1.63888L280.361 1.13889ZM284.345 1.15476L284.347 0.654766L286.339 0.662702L286.337 1.1627L286.335 1.66269L284.343 1.65476L284.345 1.15476ZM288.329 1.17063L288.331 0.670639L290.323 0.678575L290.321 1.17857L290.319 1.67857L288.327 1.67063L288.329 1.17063ZM292.314 1.18651L292.315 0.686512L294.308 0.694448L294.306 1.19444L294.304 1.69444L292.312 1.6865L292.314 1.18651ZM296.298 1.20238L296.3 0.702385L298.292 0.710321L298.29 1.21032L298.288 1.71031L296.296 1.70238L296.298 1.20238ZM300.282 1.21825L300.284 0.718258L302.276 0.726195L302.274 1.22619L302.272 1.72619L300.28 1.71825L300.282 1.21825ZM304.266 1.23413L304.268 0.734131L306.26 0.742067L306.258 1.24206L306.256 1.74206L304.264 1.73412L304.266 1.23413ZM308.25 1.25L308.252 0.750004L310.244 0.757941L310.242 1.25794L310.24 1.75793L308.248 1.75L308.25 1.25ZM312.234 1.26587L312.236 0.765877L314.228 0.773814L314.226 1.27381L314.224 1.77381L312.232 1.76587L312.234 1.26587ZM316.218 1.28175L316.22 0.78175L318.212 0.789687L318.21 1.28968L318.208 1.78968L316.216 1.78174L316.218 1.28175ZM320.202 1.29762L320.204 0.797623L322.196 0.80556L322.194 1.30556L322.192 1.80555L320.2 1.79762L320.202 1.29762ZM324.187 1.31349L324.189 0.813496L326.181 0.821433L326.179 1.32143L326.177 1.82142L324.185 1.81349L324.187 1.31349ZM328.171 1.32937L328.173 0.829369L330.165 0.837306L330.163 1.3373L330.161 1.8373L328.169 1.82936L328.171 1.32937ZM332.155 1.34524L332.157 0.845242L334.149 0.853179L334.147 1.35317L334.145 1.85317L332.153 1.84523L332.155 1.34524ZM336.139 1.36111L336.141 0.861115L338.133 0.869052L338.131 1.36905L338.129 1.86904L336.137 1.86111L336.139 1.36111ZM340.123 1.37698L340.125 0.876988L342.117 0.884925L342.115 1.38492L342.113 1.88492L340.121 1.87698L340.123 1.37698ZM344.107 1.39286L344.109 0.892861L346.101 0.900798L346.099 1.40079L346.097 1.90079L344.105 1.89285L344.107 1.39286ZM348.091 1.40873L348.093 0.908734L350.085 0.916671L350.083 1.41667L350.081 1.91666L348.089 1.90873L348.091 1.40873ZM352.075 1.4246L352.077 0.924607L354.069 0.932544L354.068 1.43254L354.066 1.93254L352.073 1.9246L352.075 1.4246ZM356.06 1.44048L356.062 0.94048L358.054 0.948417L358.052 1.44841L358.05 1.94841L356.058 1.94047L356.06 1.44048ZM360.044 1.45635L360.046 0.956353L362.038 0.96429L362.036 1.46429L362.034 1.96428L360.042 1.95635L360.044 1.45635ZM364.028 1.47222L364.03 0.972226L366.022 0.980163L366.02 1.48016L366.018 1.98015L364.026 1.97222L364.028 1.47222ZM368.012 1.4881L368.014 0.988099L370.006 0.996036L370.004 1.49603L370.002 1.99603L368.01 1.98809L368.012 1.4881ZM371.996 1.50397L371.998 1.00397L373.99 1.01191L373.988 1.51191L373.986 2.0119L371.994 2.00396L371.996 1.50397ZM375.98 1.51984L375.982 1.01985L377.974 1.02778L377.972 1.52778L377.97 2.02777L375.978 2.01984L375.98 1.51984ZM379.964 1.53571L379.966 1.03572L381.958 1.04365L381.956 1.54365L381.954 2.04365L379.962 2.03571L379.964 1.53571ZM383.948 1.55159L383.95 1.05159L385.943 1.05953L385.941 1.55952L385.939 2.05952L383.947 2.05158L383.948 1.55159ZM387.933 1.56746L387.935 1.06746L389.927 1.0754L389.925 1.5754L389.923 2.07539L387.931 2.06746L387.933 1.56746ZM391.917 1.58333L391.919 1.08334L393.911 1.09127L393.909 1.59127L393.907 2.09127L391.915 2.08333L391.917 1.58333ZM395.901 1.59921L395.903 1.09921L397.895 1.10715L397.893 1.60714L397.891 2.10714L395.899 2.0992L395.901 1.59921ZM399.885 1.61508L399.887 1.11508L401.879 1.12302L401.877 1.62302L401.875 2.12301L399.883 2.11508L399.885 1.61508ZM403.869 1.63095L403.871 1.13096L405.863 1.13889L405.861 1.63889L405.859 2.13889L403.867 2.13095L403.869 1.63095ZM407.853 1.64683L407.855 1.14683L409.847 1.15477L409.845 1.65476L409.843 2.15476L407.851 2.14682L407.853 1.64683ZM411.837 1.6627L411.839 1.1627L413.831 1.17064L413.829 1.67064L413.827 2.17063L411.835 2.16269L411.837 1.6627ZM415.822 1.67857L415.824 1.17858L417.816 1.18651L417.814 1.68651L417.812 2.1865L415.82 2.17857L415.822 1.67857ZM419.806 1.69444L419.808 1.19445L421.8 1.20239L421.798 1.70238L421.796 2.20238L419.804 2.19444L419.806 1.69444ZM423.79 1.71032L423.792 1.21032L425.784 1.21826L425.782 1.71825L425.78 2.21825L423.788 2.21031L423.79 1.71032ZM427.774 1.72619L427.776 1.22619L429.768 1.23413L429.766 1.73413L429.764 2.23412L427.772 2.22619L427.774 1.72619ZM431.758 1.74206L431.76 1.24207L433.752 1.25L433.75 1.75L433.748 2.25L431.756 2.24206L431.758 1.74206ZM435.742 1.75794L435.744 1.25794L437.736 1.26588L437.734 1.76587L437.732 2.26587L435.74 2.25793L435.742 1.75794ZM439.726 1.77381L439.728 1.27381L441.72 1.28175L441.718 1.78175L441.716 2.28174L439.724 2.27381L439.726 1.77381ZM443.71 1.78968L443.712 1.28969L445.704 1.29762L445.702 1.79762L445.701 2.29762L443.708 2.28968L443.71 1.78968ZM447.695 1.80556L447.697 1.30556L449.689 1.3135L449.687 1.81349L449.685 2.31349L447.693 2.30555L447.695 1.80556ZM451.679 1.82143L451.681 1.32143L453.673 1.32937L453.671 1.82937L453.669 2.32936L451.677 2.32143L451.679 1.82143ZM455.663 1.8373L455.665 1.33731L457.657 1.34524L457.655 1.84524L457.653 2.34523L455.661 2.3373L455.663 1.8373ZM459.647 1.85318L459.649 1.35318L461.641 1.36112L461.639 1.86111L461.637 2.36111L459.645 2.35317L459.647 1.85318ZM463.631 1.86905L463.633 1.36905L465.625 1.37699L465.623 1.87698L465.621 2.37698L463.629 2.36904L463.631 1.86905ZM467.615 1.88492L467.617 1.38493L469.609 1.39286L469.607 1.89286L469.605 2.39285L467.613 2.38492L467.615 1.88492ZM471.599 1.90079L471.601 1.4008L473.593 1.40873L473.591 1.90873L473.589 2.40873L471.597 2.40079L471.599 1.90079ZM475.583 1.91667L475.585 1.41667L477.578 1.42461L477.576 1.9246L477.574 2.4246L475.581 2.41666L475.583 1.91667ZM479.568 1.93254L479.57 1.43254L481.562 1.44048L481.56 1.94048L481.558 2.44047L479.566 2.43254L479.568 1.93254ZM483.552 1.94841L483.554 1.44842L485.546 1.45635L485.544 1.95635L485.542 2.45635L483.55 2.44841L483.552 1.94841ZM487.536 1.96429L487.538 1.46429L489.53 1.47223L489.528 1.97222L489.526 2.47222L487.534 2.46428L487.536 1.96429ZM491.52 1.98016L491.522 1.48016L493.514 1.4881L493.512 1.9881L493.51 2.48809L491.518 2.48016L491.52 1.98016ZM495.504 1.99603L495.506 1.49604L496.502 1.5L496.5 2L496.498 2.5L495.502 2.49603L495.504 1.99603ZM496.5 2L496.498 1.5L497.494 1.49604L497.496 1.99603L497.498 2.49603L496.502 2.5L496.5 2ZM499.488 1.9881L499.486 1.4881L501.478 1.48016L501.48 1.98016L501.482 2.48015L499.49 2.48809L499.488 1.9881ZM503.472 1.97222L503.47 1.47223L505.462 1.46429L505.464 1.96429L505.466 2.46428L503.474 2.47222L503.472 1.97222ZM507.456 1.95635L507.454 1.45635L509.446 1.44842L509.448 1.94841L509.45 2.44841L507.458 2.45635L507.456 1.95635ZM511.44 1.94048L511.438 1.44048L513.431 1.43254L513.433 1.93254L513.435 2.43254L511.442 2.44047L511.44 1.94048ZM515.425 1.9246L515.423 1.42461L517.415 1.41667L517.417 1.91667L517.419 2.41666L515.427 2.4246L515.425 1.9246ZM519.409 1.90873L519.407 1.40873L521.399 1.4008L521.401 1.90079L521.403 2.40079L519.411 2.40873L519.409 1.90873ZM523.393 1.89286L523.391 1.39286L525.383 1.38492L525.385 1.88492L525.387 2.38492L523.395 2.39285L523.393 1.89286ZM527.377 1.87698L527.375 1.37699L529.367 1.36905L529.369 1.86905L529.371 2.36904L527.379 2.37698L527.377 1.87698ZM531.361 1.86111L531.359 1.36112L533.351 1.35318L533.353 1.85317L533.355 2.35317L531.363 2.36111L531.361 1.86111ZM535.345 1.84524L535.343 1.34524L537.335 1.33731L537.337 1.8373L537.339 2.3373L535.347 2.34523L535.345 1.84524ZM539.329 1.82937L539.327 1.32937L541.319 1.32143L541.321 1.82143L541.323 2.32142L539.331 2.32936L539.329 1.82937ZM543.313 1.81349L543.312 1.3135L545.304 1.30556L545.306 1.80556L545.308 2.30555L543.315 2.31349L543.313 1.81349ZM547.298 1.79762L547.296 1.29762L549.288 1.28969L549.29 1.78968L549.292 2.28968L547.3 2.29762L547.298 1.79762ZM551.282 1.78175L551.28 1.28175L553.272 1.27381L553.274 1.77381L553.276 2.27381L551.284 2.28174L551.282 1.78175ZM555.266 1.76587L555.264 1.26588L557.256 1.25794L557.258 1.75794L557.26 2.25793L555.268 2.26587L555.266 1.76587ZM559.25 1.75L559.248 1.25L561.24 1.24207L561.242 1.74206L561.244 2.24206L559.252 2.25L559.25 1.75ZM563.234 1.73413L563.232 1.23413L565.224 1.22619L565.226 1.72619L565.228 2.22619L563.236 2.23412L563.234 1.73413ZM567.218 1.71825L567.216 1.21826L569.208 1.21032L569.21 1.71032L569.212 2.21031L567.22 2.21825L567.218 1.71825ZM571.202 1.70238L571.2 1.20238L573.193 1.19445L573.194 1.69444L573.196 2.19444L571.204 2.20238L571.202 1.70238ZM575.187 1.68651L575.185 1.18651L577.177 1.17858L577.179 1.67857L577.181 2.17857L575.189 2.1865L575.187 1.68651ZM579.171 1.67063L579.169 1.17064L581.161 1.1627L581.163 1.6627L581.165 2.16269L579.173 2.17063L579.171 1.67063ZM583.155 1.65476L583.153 1.15477L585.145 1.14683L585.147 1.64683L585.149 2.14682L583.157 2.15476L583.155 1.65476ZM587.139 1.63889L587.137 1.13889L589.129 1.13096L589.131 1.63095L589.133 2.13095L587.141 2.13888L587.139 1.63889ZM591.123 1.62302L591.121 1.12302L593.113 1.11508L593.115 1.61508L593.117 2.11508L591.125 2.12301L591.123 1.62302ZM595.107 1.60714L595.105 1.10715L597.097 1.09921L597.099 1.59921L597.101 2.0992L595.109 2.10714L595.107 1.60714ZM599.091 1.59127L599.089 1.09127L601.081 1.08334L601.083 1.58333L601.085 2.08333L599.093 2.09127L599.091 1.59127ZM603.075 1.5754L603.073 1.0754L605.065 1.06746L605.068 1.56746L605.07 2.06746L603.077 2.07539L603.075 1.5754ZM607.06 1.55952L607.058 1.05953L609.05 1.05159L609.052 1.55159L609.054 2.05158L607.062 2.05952L607.06 1.55952ZM611.044 1.54365L611.042 1.04365L613.034 1.03572L613.036 1.53571L613.038 2.03571L611.046 2.04365L611.044 1.54365ZM615.028 1.52778L615.026 1.02778L617.018 1.01985L617.02 1.51984L617.022 2.01984L615.03 2.02777L615.028 1.52778ZM619.012 1.5119L619.01 1.01191L621.002 1.00397L621.004 1.50397L621.006 2.00396L619.014 2.0119L619.012 1.5119ZM622.996 1.49603L622.994 0.996035L624.986 0.988099L624.988 1.48809L624.99 1.98809L622.998 1.99603L622.996 1.49603ZM626.98 1.48016L626.978 0.980162L628.97 0.972226L628.972 1.47222L628.974 1.97222L626.982 1.98015L626.98 1.48016ZM630.964 1.46429L630.962 0.964289L632.954 0.956353L632.956 1.45635L632.958 1.95634L630.966 1.96428L630.964 1.46429ZM634.948 1.44841L634.946 0.948416L636.939 0.94048L636.941 1.44048L636.943 1.94047L634.951 1.94841L634.948 1.44841ZM638.933 1.43254L638.931 0.932543L640.923 0.924607L640.925 1.4246L640.927 1.9246L638.935 1.93254L638.933 1.43254ZM642.917 1.41667L642.915 0.91667L644.907 0.908734L644.909 1.40873L644.911 1.90873L642.919 1.91666L642.917 1.41667ZM646.901 1.40079L646.899 0.900797L648.891 0.892861L648.893 1.39286L648.895 1.89285L646.903 1.90079L646.901 1.40079ZM650.885 1.38492L650.883 0.884924L652.875 0.876988L652.877 1.37698L652.879 1.87698L650.887 1.88492L650.885 1.38492ZM654.869 1.36905L654.867 0.869051L656.859 0.861115L656.861 1.36111L656.863 1.86111L654.871 1.86904L654.869 1.36905ZM658.853 1.35317L658.851 0.853178L660.843 0.845242L660.845 1.34524L660.847 1.84523L658.855 1.85317L658.853 1.35317ZM662.837 1.3373L662.835 0.837305L664.827 0.829369L664.829 1.32936L664.831 1.82936L662.839 1.8373L662.837 1.3373ZM666.822 1.32143L666.82 0.821432L668.812 0.813496L668.814 1.31349L668.816 1.81349L666.824 1.82142L666.822 1.32143ZM670.806 1.30556L670.804 0.805559L672.796 0.797623L672.798 1.29762L672.8 1.79761L670.808 1.80555L670.806 1.30556ZM674.79 1.28968L674.788 0.789686L676.78 0.78175L676.782 1.28175L676.784 1.78174L674.792 1.78968L674.79 1.28968ZM678.774 1.27381L678.772 0.773813L680.764 0.765877L680.766 1.26587L680.768 1.76587L678.776 1.77381L678.774 1.27381ZM682.758 1.25794L682.756 0.75794L684.748 0.750004L684.75 1.25L684.752 1.75L682.76 1.75793L682.758 1.25794ZM686.742 1.24206L686.74 0.742067L688.732 0.734131L688.734 1.23413L688.736 1.73412L686.744 1.74206L686.742 1.24206ZM690.726 1.22619L690.724 0.726194L692.716 0.718258L692.718 1.21825L692.72 1.71825L690.728 1.72619L690.726 1.22619ZM694.71 1.21032L694.708 0.710321L696.701 0.702384L696.703 1.20238L696.704 1.70238L694.712 1.71031L694.71 1.21032ZM698.695 1.19444L698.693 0.694448L700.685 0.686511L700.687 1.18651L700.689 1.6865L698.697 1.69444L698.695 1.19444ZM702.679 1.17857L702.677 0.678575L704.669 0.670638L704.671 1.17063L704.673 1.67063L702.681 1.67857L702.679 1.17857ZM706.663 1.1627L706.661 0.662702L708.653 0.654765L708.655 1.15476L708.657 1.65476L706.665 1.66269L706.663 1.1627ZM710.647 1.14682L710.645 0.646829L712.637 0.638892L712.639 1.13889L712.641 1.63888L710.649 1.64682L710.647 1.14682ZM714.631 1.13095L714.629 0.630956L716.621 0.623019L716.623 1.12302L716.625 1.62301L714.633 1.63095L714.631 1.13095ZM718.615 1.11508L718.613 0.615083L720.605 0.607146L720.607 1.10714L720.609 1.60714L718.617 1.61507L718.615 1.11508ZM722.599 1.09921L722.597 0.59921L724.589 0.591273L724.591 1.09127L724.593 1.59127L722.601 1.5992L722.599 1.09921ZM726.583 1.08333L726.581 0.583337L728.574 0.5754L728.576 1.0754L728.578 1.57539L726.585 1.58333L726.583 1.08333ZM730.568 1.06746L730.566 0.567464L732.558 0.559527L732.56 1.05952L732.562 1.55952L730.57 1.56746L730.568 1.06746ZM734.552 1.05159L734.55 0.551591L736.542 0.543654L736.544 1.04365L736.546 1.54365L734.554 1.55158L734.552 1.05159ZM738.536 1.03571L738.534 0.535718L740.526 0.527781L740.528 1.02778L740.53 1.52777L738.538 1.53571L738.536 1.03571ZM742.52 1.01984L742.518 0.519845L744.51 0.511908L744.512 1.0119L744.514 1.5119L742.522 1.51984L742.52 1.01984ZM746.504 1.00397L746.502 0.503972L747.498 0.500004L747.5 1L747.502 1.5L746.506 1.50396L746.504 1.00397ZM747.5 1L747.502 0.500004L748.508 0.504012L748.506 1.00401L748.504 1.504L747.498 1.5L747.5 1ZM750.518 1.01203L750.52 0.51203L752.533 0.520047L752.531 1.02004L752.529 1.52004L750.516 1.51202L750.518 1.01203ZM754.543 1.02806L754.545 0.528064L756.557 0.536081L756.555 1.03608L756.553 1.53607L754.541 1.52806L754.543 1.02806ZM758.568 1.04409L758.57 0.544098L760.582 0.552115L760.58 1.05211L760.578 1.55211L758.566 1.54409L758.568 1.04409ZM762.592 1.06013L762.594 0.560132L764.607 0.568149L764.604 1.06815L764.603 1.56814L762.59 1.56012L762.592 1.06013ZM766.617 1.07616L766.619 0.576167L768.631 0.584184L768.629 1.08418L768.627 1.58418L766.615 1.57616L766.617 1.07616ZM770.641 1.0922L770.643 0.592201L772.656 0.600218L772.654 1.10021L772.652 1.60021L770.639 1.59219L770.641 1.0922ZM774.666 1.10823L774.668 0.608235L776.68 0.616252L776.678 1.11625L776.676 1.61624L774.664 1.60823L774.666 1.10823ZM778.691 1.12427L778.693 0.624269L780.705 0.632286L780.703 1.13228L780.701 1.63228L778.689 1.62426L778.691 1.12427ZM782.715 1.1403L782.717 0.640303L784.729 0.64832L784.727 1.14832L784.725 1.64831L782.713 1.6403L782.715 1.1403ZM786.74 1.15633L786.742 0.656338L788.754 0.664355L788.752 1.16435L788.75 1.66435L786.738 1.65633L786.74 1.15633ZM790.764 1.17237L790.766 0.672372L792.779 0.680389L792.777 1.18038L792.775 1.68038L790.762 1.67236L790.764 1.17237ZM794.789 1.1884L794.791 0.688406L796.803 0.696423L796.801 1.19642L796.799 1.69642L794.787 1.6884L794.789 1.1884ZM798.814 1.20444L798.815 0.70444L800.828 0.712457L800.826 1.21245L800.824 1.71245L798.812 1.70443L798.814 1.20444ZM802.838 1.22047L802.84 0.720474L804.852 0.728492L804.85 1.22849L804.848 1.72848L802.836 1.72047L802.838 1.22047ZM806.863 1.2365L806.865 0.736509L808.877 0.744526L808.875 1.24452L808.873 1.74452L806.861 1.7365L806.863 1.2365ZM810.887 1.25254L810.889 0.752543L812.902 0.76056L812.9 1.26056L812.898 1.76055L810.885 1.75253L810.887 1.25254ZM814.912 1.26857L814.914 0.768577L816.926 0.776594L816.924 1.27659L816.922 1.77659L814.91 1.76857L814.912 1.26857ZM818.936 1.28461L818.938 0.784611L820.951 0.792629L820.949 1.29262L820.947 1.79262L818.934 1.7846L818.936 1.28461ZM822.961 1.30064L822.963 0.800646L824.975 0.808663L824.973 1.30866L824.971 1.80865L822.959 1.80064L822.961 1.30064ZM826.986 1.31668L826.988 0.81668L829 0.824697L828.998 1.32469L828.996 1.82469L826.984 1.81667L826.986 1.31668ZM831.01 1.33271L831.012 0.832714L833.025 0.840731L833.023 1.34073L833.021 1.84072L831.008 1.83271L831.01 1.33271ZM835.035 1.34874L835.037 0.848748L837.049 0.856766L837.047 1.35676L837.045 1.85676L835.033 1.84874L835.035 1.34874ZM839.059 1.36478L839.061 0.864783L841.074 0.8728L841.072 1.3728L841.07 1.87279L839.057 1.86477L839.059 1.36478ZM843.084 1.38081L843.086 0.880817L845.098 0.888834L845.096 1.38883L845.094 1.88883L843.082 1.88081L843.084 1.38081ZM847.109 1.39685L847.111 0.896851L849.123 0.904868L849.121 1.40486L849.119 1.90486L847.107 1.89684L847.109 1.39685ZM851.133 1.41288L851.135 0.912885L853.148 0.920902L853.146 1.4209L853.144 1.92089L851.131 1.91288L851.133 1.41288ZM855.158 1.42892L855.16 0.92892L857.172 0.936937L857.17 1.43693L857.168 1.93693L855.156 1.92891L855.158 1.42892ZM859.182 1.44495L859.184 0.944954L861.197 0.952971L861.195 1.45297L861.193 1.95296L859.18 1.94495L859.182 1.44495ZM863.207 1.46098L863.209 0.960988L865.221 0.969005L865.219 1.469L865.217 1.969L863.205 1.96098L863.207 1.46098ZM867.232 1.47702L867.234 0.977022L869.246 0.985039L869.244 1.48504L869.242 1.98503L867.23 1.97701L867.232 1.47702ZM871.256 1.49305L871.258 0.993057L873.271 1.00107L873.268 1.50107L873.266 2.00107L871.254 1.99305L871.256 1.49305ZM875.281 1.50909L875.283 1.00909L877.295 1.01711L877.293 1.5171L877.291 2.0171L875.279 2.00908L875.281 1.50909ZM879.305 1.52512L879.307 1.02513L881.32 1.03314L881.318 1.53314L881.316 2.03313L879.303 2.02512L879.305 1.52512ZM883.33 1.54116L883.332 1.04116L885.344 1.04918L885.342 1.54917L885.34 2.04917L883.328 2.04115L883.33 1.54116ZM887.355 1.55719L887.357 1.05719L889.369 1.06521L889.367 1.56521L889.365 2.0652L887.353 2.05719L887.355 1.55719ZM891.379 1.57322L891.381 1.07323L893.393 1.08124L893.391 1.58124L893.389 2.08124L891.377 2.07322L891.379 1.57322ZM895.404 1.58926L895.406 1.08926L897.418 1.09728L897.416 1.59728L897.414 2.09727L895.402 2.08925L895.404 1.58926ZM899.428 1.60529L899.43 1.1053L901.443 1.11331L901.441 1.61331L901.439 2.11331L899.426 2.10529L899.428 1.60529ZM903.453 1.62133L903.455 1.12133L905.467 1.12935L905.465 1.62934L905.463 2.12934L903.451 2.12132L903.453 1.62133ZM907.478 1.63736L907.48 1.13736L909.492 1.14538L909.49 1.64538L909.488 2.14537L907.476 2.13736L907.478 1.63736ZM911.502 1.6534L911.504 1.1534L913.516 1.16142L913.514 1.66141L913.512 2.16141L911.5 2.15339L911.502 1.6534ZM915.527 1.66943L915.529 1.16943L917.541 1.17745L917.539 1.67745L917.537 2.17744L915.525 2.16943L915.527 1.66943ZM919.551 1.68546L919.553 1.18547L921.566 1.19348L921.564 1.69348L921.562 2.19348L919.549 2.18546L919.551 1.68546ZM923.576 1.7015L923.578 1.2015L925.59 1.20952L925.588 1.70951L925.586 2.20951L923.574 2.20149L923.576 1.7015ZM927.601 1.71753L927.603 1.21754L929.615 1.22555L929.613 1.72555L929.611 2.22555L927.599 2.21753L927.601 1.71753ZM931.625 1.73357L931.627 1.23357L933.639 1.24159L933.637 1.74158L933.635 2.24158L931.623 2.23356L931.625 1.73357ZM935.65 1.7496L935.652 1.2496L937.664 1.25762L937.662 1.75762L937.66 2.25761L935.648 2.2496L935.65 1.7496ZM939.674 1.76563L939.676 1.26564L941.689 1.27366L941.687 1.77365L941.685 2.27365L939.672 2.26563L939.674 1.76563ZM943.699 1.78167L943.701 1.28167L945.713 1.28969L945.711 1.78969L945.709 2.28968L943.697 2.28167L943.699 1.78167ZM947.724 1.7977L947.726 1.29771L949.738 1.30572L949.736 1.80572L949.734 2.30572L947.721 2.2977L947.724 1.7977ZM951.748 1.81374L951.75 1.31374L953.762 1.32176L953.76 1.82175L953.758 2.32175L951.746 2.31373L951.748 1.81374ZM955.773 1.82977L955.775 1.32978L957.787 1.33779L957.785 1.83779L957.783 2.33778L955.771 2.32977L955.773 1.82977ZM959.797 1.84581L959.799 1.34581L961.812 1.35383L961.81 1.85382L961.808 2.35382L959.795 2.3458L959.797 1.84581ZM963.822 1.86184L963.824 1.36184L965.836 1.36986L965.834 1.86986L965.832 2.36985L963.82 2.36184L963.822 1.86184ZM967.846 1.87787L967.849 1.37788L969.861 1.3859L969.859 1.88589L969.857 2.38589L967.844 2.37787L967.846 1.87787ZM971.871 1.89391L971.873 1.39391L973.885 1.40193L973.883 1.90193L973.881 2.40192L971.869 2.3939L971.871 1.89391ZM975.896 1.90994L975.898 1.40995L977.91 1.41796L977.908 1.91796L977.906 2.41796L975.894 2.40994L975.896 1.90994ZM979.92 1.92598L979.922 1.42598L981.935 1.434L981.933 1.93399L981.931 2.43399L979.918 2.42597L979.92 1.92598ZM983.945 1.94201L983.947 1.44202L985.959 1.45003L985.957 1.95003L985.955 2.45002L983.943 2.44201L983.945 1.94201ZM987.969 1.95805L987.971 1.45805L989.984 1.46607L989.982 1.96606L989.98 2.46606L987.967 2.45804L987.969 1.95805ZM991.994 1.97408L991.996 1.47408L993.002 1.47809L993 1.97809L992.998 2.47808L991.992 2.47408L991.994 1.97408Z" fill="#A3A3A3" />
</svg>